# xmcd
#
# Track frame offsets:
#	150
#	15062
#	27096
#	41101
#	56007
#	67514
#	79839
#	92917
#	104430
#	116479
#
# Disc length: 1794 seconds
#
# Revision: 0
# Processed by: cddbd v1.4PL0 Copyright (c) Steve Scherf et al.
# Submitted via: dBpowerAMP V4.0
#
DISCID=6f07000a
DTITLE=Dayna Wills - Bob's Sister Helen's Kid Vol. 1
DYEAR=1900
DGENRE=Country
TTITLE0=Touble In Mind
TTITLE1=Rosetta
TTITLE2=Last Letter
TTITLE3=Blues For Dixie
TTITLE4=If She's Moving In
TTITLE5=A Year Ago Tonight
TTITLE6=Sugar Moon
TTITLE7=My Window Faces The South
TTITLE8=I Won't Be Back Tonight
TTITLE9=Faded Love
EXTD=
EXTT0=
EXTT1=
EXTT2=
EXTT3=
EXTT4=
EXTT5=
EXTT6=
EXTT7=
EXTT8=
EXTT9=
PLAYORDER=
